<svg width="275" height="288" xmlns="http://www.w3.org/2000/svg" xmlns:xlink="http://www.w3.org/1999/xlink" overflow="hidden"><g clip-path="url(#clip0)"><g clip-path="url(#clip1)"><g clip-path="url(#clip2)"><g clip-path="url(#clip3)"><path d="M263.652 52.0602C261.653 48.5976 257.225 47.4115 253.763 49.4105L226.021 65.4274C215.158 53.7896 196.918 53.1615 185.28 64.0243 185.173 64.1245 185.067 64.2253 184.961 64.3269L161.395 50.7165C164.327 34.9945 153.958 19.872 138.236 16.9399 122.514 14.0077 107.392 24.376 104.46 40.0981 103.805 43.6075 103.805 47.2073 104.46 50.7165L80.873 64.3269C69.3427 53.2622 51.0257 53.6402 39.9613 65.1705 28.8966 76.7008 29.2742 95.0176 40.8048 106.082 44.2248 109.364 48.3992 111.756 52.9601 113.046L52.9601 140.175C37.6015 144.508 28.6635 160.471 32.9965 175.829 33.0478 176.011 33.1008 176.192 33.1555 176.373L4.41146 192.992C0.935647 194.968-0.280024 199.388 1.69618 202.863 3.67235 206.339 8.09206 207.555 11.5679 205.579 11.5957 205.563 11.6234 205.547 11.651 205.531L40.6991 188.761C51.849 199.662 69.6433 199.727 80.873 188.909L104.46 202.519C101.66 217.451 110.956 231.985 125.686 235.705L125.686 268.521C125.686 272.519 128.927 275.76 132.926 275.76 136.924 275.76 140.165 272.519 140.165 268.521L140.165 235.714C154.891 231.988 164.185 217.459 161.395 202.528L184.961 188.917C196.501 199.969 214.816 199.573 225.868 188.032 236.919 176.492 236.523 158.177 224.983 147.125 221.578 143.865 217.428 141.486 212.894 140.195L212.894 113.052C227.983 108.819 236.914 93.2945 232.988 78.1227L261.003 61.9495C264.465 59.9502 265.651 55.5227 263.652 52.0602ZM132.926 33.9583C139.323 33.9583 144.509 39.1445 144.509 45.5417 144.509 51.9389 139.323 57.125 132.926 57.125 126.528 57.125 121.342 51.9389 121.342 45.5417 121.342 39.1445 126.528 33.9583 132.926 33.9583ZM49.2824 85.2146C49.2824 78.8174 54.4685 73.6312 60.8657 73.6312 67.2629 73.6312 72.4491 78.8174 72.4491 85.2146 72.4491 91.6118 67.2629 96.7979 60.8657 96.7979 54.474 96.7979 49.2905 91.6207 49.2824 85.2291ZM60.8657 179.59C54.4685 179.59 49.2824 174.404 49.2824 168.006 49.2824 161.609 54.4685 156.423 60.8657 156.423 67.2629 156.423 72.4491 161.609 72.4491 168.006 72.465 174.404 67.2919 179.603 60.8947 179.619 60.8851 179.619 60.8753 179.619 60.8657 179.619ZM132.926 219.292C126.528 219.292 121.342 214.106 121.342 207.708 121.342 201.311 126.528 196.125 132.926 196.125 139.323 196.125 144.509 201.311 144.509 207.708 144.509 214.106 139.323 219.292 132.926 219.292ZM132.926 178.75C124.262 178.749 116.055 182.634 110.564 189.334L88.5354 176.61C93.2782 161.346 84.7494 145.128 69.4858 140.385 68.8142 140.176 68.1357 139.992 67.4509 139.833L67.4509 113.394C83.0194 109.775 92.7063 94.2203 89.0874 78.6518 88.9281 77.9669 88.7439 77.2881 88.5354 76.6169L110.576 63.8926C120.701 76.2433 138.922 78.0474 151.272 67.9218 152.745 66.7146 154.094 65.3651 155.302 63.8926L177.31 76.5995C172.563 91.8602 181.085 108.08 196.346 112.827 197.033 113.041 197.728 113.229 198.429 113.391L198.429 139.813C182.857 143.41 173.149 158.949 176.746 174.521 176.908 175.222 177.096 175.917 177.31 176.604L155.302 189.311C149.802 182.616 141.59 178.74 132.926 178.75ZM216.531 168.035C216.531 174.433 211.345 179.619 204.948 179.619 198.551 179.619 193.365 174.433 193.365 168.035 193.365 161.638 198.551 156.452 204.948 156.452 211.345 156.452 216.531 161.638 216.531 168.035ZM204.948 96.8269C198.551 96.8269 193.365 91.6407 193.365 85.2435 193.365 78.8464 198.551 73.6602 204.948 73.6602 211.345 73.6602 216.531 78.8464 216.531 85.2435 216.523 91.6352 211.34 96.8124 204.948 96.8124Z" fill="#0070C0"/></g></g></g></g></svg>
