<svg width="864" height="288" xmlns="http://www.w3.org/2000/svg" xmlns:xlink="http://www.w3.org/1999/xlink" overflow="hidden"><defs><clipPath id="clip3"><rect x="13" y="22" width="244" height="244" fill="#0070C0"/></clipPath><clipPath id="clip4"><rect x="13" y="22" width="244" height="244" fill="#0070C0"/></clipPath><clipPath id="clip5"><rect x="13" y="22" width="244" height="244" fill="#0070C0"/></clipPath></defs><g clip-path="url(#clip0)"><rect x="0" y="0" width="864" height="288" fill="#0070C0"/><text fill="#F2F2F2" font-family="Arial,Arial_MSFontService,sans-serif" font-weight="700" font-size="267" transform="translate(256.654 241)">GO</text><text fill="#F2F2F2" font-family="Arial,Arial_MSFontService,sans-serif" font-weight="700" font-size="267" transform="translate(671.654 241)">A</text><g clip-path="url(#clip2)"><use width="100%" height="100%" xlink:href="#img1" transform="translate(12 26)"></use></g><g clip-path="url(#clip3)"><g clip-path="url(#clip4)"><g clip-path="url(#clip5)"><path d="M121.588 244.126C121.588 249.067 126.564 253.076 132.702 253.076 137.524 253.395 141.971 250.473 143.591 245.921 143.806 245.323 143.945 244.701 144.005 244.068 145.385 227.077 147.851 211.649 163.172 195.581 165.531 196.533 167.949 197.333 170.411 197.975 171.603 205.371 175.13 212.192 180.475 217.441 182.577 219.302 185.79 219.107 187.651 217.005 189.477 214.943 189.328 211.801 187.315 209.921 184.587 207.138 182.525 203.773 181.284 200.079 185.572 200.636 189.892 200.917 194.216 200.918 197.023 200.918 199.299 198.642 199.299 195.835 199.299 193.027 197.023 190.751 194.216 190.751 185.636 190.832 177.098 189.535 168.929 186.911 187.737 174.05 201.101 173.214 224.042 174.546 226.846 174.681 229.229 172.517 229.364 169.713 229.497 166.949 227.395 164.586 224.634 164.397L221.401 164.206C209.067 163.474 198.913 162.895 188.985 164.661 189.07 162.646 189.281 160.637 189.615 158.648 190.578 152.069 195.613 146.827 202.148 145.601 202.934 145.464 203.689 145.294 204.461 145.139 213.061 149.336 222.523 151.462 232.092 151.345 237.317 151.54 242.522 150.59 247.342 148.562 249.842 147.286 250.835 144.225 249.56 141.724 248.311 139.277 245.345 138.265 242.861 139.438 238.492 141.583 229.39 141.616 221.34 140.2 226.098 138.328 230.619 135.904 234.811 132.977 237.102 131.344 237.635 128.164 236.002 125.874 234.37 123.584 231.19 123.051 228.899 124.683 220.301 130.35 210.568 134.069 200.382 135.579 189.565 137.558 181.203 146.194 179.573 157.069 178.939 160.454 178.717 163.902 178.912 167.34 175.102 168.738 171.427 170.476 167.93 172.535 166.977 171.051 165.935 169.529 164.857 167.96 157.74 157.613 148.875 144.735 155.898 128.31 160.981 116.387 174.198 105.621 188.139 101.902 189.58 101.968 192.655 102.085 196.585 102.085 205.572 102.085 218.979 101.478 227.339 98.2907 229.961 97.287 231.273 94.3478 230.269 91.7255 229.266 89.1033 226.326 87.7913 223.704 88.795 216.633 91.4942 203.437 92.0077 194.554 91.9136 196.668 85.7173 199.108 79.6366 201.864 73.6975 203.115 71.1843 202.092 68.1325 199.579 66.8813 197.065 65.6302 194.014 66.653 192.762 69.1662 192.746 69.1998 192.73 69.2336 192.714 69.2674 189.211 76.8771 186.156 84.6849 183.564 92.6507 177.866 94.4423 172.457 97.0455 167.503 100.38 165.879 97.3114 164.8 93.9841 164.316 90.5462 164.046 87.2115 165.841 82.5171 167.566 77.9751 168.738 75.0906 169.731 72.1367 170.54 69.1301 172.319 61.8737 170.423 55.7533 167.294 45.6197 166.588 43.3322 165.802 40.7905 164.964 37.9362 164.173 35.2425 161.348 33.7 158.654 34.491 155.96 35.282 154.418 38.107 155.209 40.8007 156.063 43.7084 156.861 46.2907 157.58 48.6214 159.009 53.2447 160.007 56.5718 160.559 59.2837 155.195 58.2421 150.083 56.1707 145.507 53.1837 143.083 51.7685 139.97 52.5869 138.555 55.0117 137.164 57.3937 137.927 60.4498 140.274 61.8991 146.207 65.7398 152.87 68.313 159.845 69.458 159.336 71.0135 158.711 72.6478 158.066 74.3533 155.931 79.9449 153.722 85.745 154.182 91.3824 154.89 96.8135 156.646 102.055 159.354 106.815 153.914 111.705 149.551 117.673 146.542 124.34 143.825 130.48 142.714 137.209 143.311 143.896 132.936 138.324 123.269 131.525 114.519 123.644 117.19 114.912 118.801 105.89 119.318 96.7733 119.387 96.7555 119.455 96.7733 119.521 96.7402 124.718 94.6297 129.501 91.618 133.65 87.8444 135.723 85.9509 135.868 82.7354 133.975 80.6629 132.167 78.684 129.133 78.4489 127.042 80.1254 124.718 82.1333 122.224 83.9353 119.587 85.5112 119.531 83.0508 119.402 80.7201 119.186 78.608 118.905 75.8147 116.413 73.7776 113.62 74.0584 110.826 74.3393 108.789 76.8314 109.07 79.6247 110.015 91.7438 109.053 103.936 106.218 115.757 96.0464 105.599 87.326 94.0865 80.3033 81.5436 78.9957 79.0594 75.9215 78.1055 73.4373 79.4132 70.953 80.7209 69.9992 83.795 71.3069 86.2793 71.329 86.3209 71.3513 86.3624 71.3745 86.4033 73.6111 90.5132 76.1223 94.5798 78.8368 98.5779 75.4602 97.6481 72.2231 96.2711 69.2115 94.4833 66.8917 92.9018 63.7294 93.5004 62.148 95.8202 60.5665 98.1397 61.1651 101.302 63.4849 102.884 63.5385 102.92 63.5929 102.956 63.6478 102.99 71.1508 107.898 83.5185 110.399 88.3579 111.228 104.032 130.199 124.096 146.399 143.878 155.486 146.149 164.878 149.685 173.917 154.39 182.356 153.628 183.045 152.845 183.729 152.103 184.446 145.796 189.148 140.264 194.808 135.707 201.221 126.18 200.008 111.561 193.329 100.047 186.835 100.185 186.619 100.306 186.394 100.41 186.161 101.655 182.169 102.443 178.049 102.762 173.88 110.74 172.022 118.141 168.235 124.315 162.852 126.433 161.009 126.656 157.798 124.814 155.68 122.972 153.562 119.761 153.338 117.642 155.181 117.548 155.263 117.457 155.349 117.368 155.438 113.178 159.098 108.231 161.788 102.881 163.317 102.569 158.702 101.774 154.132 100.507 149.683 99.7349 146.984 96.9208 145.421 94.2215 146.193 91.5222 146.966 89.9596 149.78 90.7318 152.479 93.4069 161.95 93.5688 171.955 91.202 181.507 89.0406 180.13 86.9597 178.629 84.9698 177.014L84.9241 176.976 84.9241 176.976C75.6063 169.056 70.6247 159.143 65.3533 148.646 59.9065 137.809 54.2716 126.602 43.594 118.146 41.3922 116.404 38.1952 116.777 36.4532 118.979 34.7112 121.18 35.0839 124.377 37.2856 126.119 42.7235 130.632 47.2352 136.156 50.5709 142.386 42.5545 142.296 34.6566 140.437 27.4417 136.942 24.9529 135.642 21.8817 136.606 20.5818 139.095 19.282 141.583 20.2458 144.655 22.7346 145.955 26.3759 147.803 30.2064 149.251 34.1594 150.275 32.1767 151.632 29.9578 152.606 27.6171 153.147 24.8712 153.732 23.1193 156.432 23.704 159.178 24.1903 161.462 26.1703 163.121 28.5042 163.2 28.8128 163.2 29.1207 163.171 29.4242 163.116 37.2272 161.69 44.4328 155.554 47.6912 152.423 48.5528 152.466 49.4145 152.507 50.2329 152.507 52.0626 152.516 53.8906 152.393 55.7025 152.138 55.8805 152.489 56.0558 152.832 56.2338 153.186 58.8997 158.718 61.8607 164.103 65.1042 169.318 61.1005 172.011 56.248 173.143 51.4656 172.5 48.7107 171.957 46.0371 173.749 45.4939 176.504 44.9508 179.259 46.7434 181.933 49.4983 182.476 51.0523 182.78 52.6322 182.932 54.2157 182.931 60.2595 182.768 66.1323 180.89 71.1483 177.514 73.3435 180.1 75.7438 182.503 78.3259 184.702 78.592 184.928 78.8833 185.166 79.2002 185.416 86.721 191.57 110.6 208.609 128.326 214.536 124.594 223.548 122.347 233.103 121.669 242.833Z" stroke="#203864" stroke-width="3" fill="#0070C0" /></g></g></g></g></svg>
