<svg width="1280" height="720" xmlns="http://www.w3.org/2000/svg" xmlns:xlink="http://www.w3.org/1999/xlink" overflow="hidden"><defs><clipPath id="clip0"><rect x="0" y="0" width="1280" height="720"/></clipPath><clipPath id="clip1"><rect x="177" y="107" width="529" height="529"/></clipPath><clipPath id="clip2"><rect x="177" y="107" width="529" height="529"/></clipPath><clipPath id="clip3"><rect x="177" y="107" width="529" height="529"/></clipPath></defs><g clip-path="url(#clip0)"><path d="M88 497C101.47 498.881 120.86 497.123 147.254 497 173.649 496.877 175.997 497.93 197.589 497 219.18 496.07 254.944 493.844 270.223 497 285.502 500.156 303.75 497.653 329.477 497 355.204 496.347 371.765 494.425 388.731 497 405.698 499.575 444.331 499.764 461.366 497 478.4 494.236 503.205 493.574 534 497 534.051 498.021 534.134 499.154 534 500 522.106 497.864 501.336 502.62 479.206 500 457.075 497.38 431.666 503.03 415.491 500 399.317 496.97 376.423 500.54 351.777 500 327.131 499.46 305.142 502.775 292.523 500 279.904 497.225 235.91 499.38 219.889 500 203.867 500.62 176.068 501.464 147.254 500 118.44 498.536 101.954 498.777 88 500 88.0222 498.984 88.0126 497.709 88 497Z" fill-rule="evenodd"/><path d="M88 497C104.538 495.288 127.82 496.363 147.254 497 166.689 497.637 183.185 496.396 197.589 497 211.993 497.604 230.604 494.672 252.383 497 274.162 499.328 288.961 499.749 320.557 497 352.153 494.251 352.317 494.034 379.811 497 407.306 499.966 422.088 498.981 434.606 497 447.124 495.019 509.685 492.531 534 497 533.898 497.908 533.95 499.353 534 500 520.27 497.688 500.836 498.2 470.286 500 439.736 501.8 430.041 500.917 415.491 500 400.942 499.083 363.385 501.158 342.857 500 322.329 498.842 307.478 497.579 283.603 500 259.727 502.421 245.907 497.905 233.269 500 220.63 502.095 197.875 501.101 165.094 500 132.313 498.899 123.866 495.992 88 500 87.8899 498.64 87.8823 497.814 88 497Z" stroke="#000000" stroke-width="4" stroke-linecap="round" stroke-linejoin="round" stroke-miterlimit="10" fill="none" fill-rule="evenodd"/><g clip-path="url(#clip1)"><g clip-path="url(#clip2)"><g clip-path="url(#clip3)"><path d="M595.792 350.836 595.792 281.956 441.5 397.674 287.208 281.956 287.208 350.836 441.5 466.555 595.792 350.836Z" fill="#00B0F0"/><path d="M287.208 149.706 287.208 218.586 441.5 334.305 595.792 218.586 595.792 149.706 441.5 265.424 287.208 149.706Z" fill="#00B0F0"/><path d="M595.792 483.086 595.792 414.206 441.5 529.924 287.208 414.206 287.208 483.086 441.5 598.805 595.792 483.086Z" fill="#00B0F0"/></g></g></g><text fill="#B13BAA" font-family="Algerian,Algerian_MSFontService,sans-serif" font-weight="400" font-stretch="extra-condensed" font-size="533" transform="translate(663.813 518)">Q</text><path d="M201 131.64C195.696 106.504 228.032 80.782 255.637 77 279.248 69.9144 290.868 78.1173 316.864 77 342.86 75.8827 351.1 79.9947 363.397 77 375.694 74.0053 407.044 78.3205 424.624 77 442.203 75.6795 449.708 80.547 471.157 77 492.606 73.453 524.432 79.942 547.078 77 569.725 74.058 583.561 77.3455 593.611 77 603.661 76.6545 629.353 84.8224 662.185 77 695.018 69.1776 697.656 79.1144 708.718 77 719.78 74.8856 755.473 82.2623 777.293 77 799.112 71.7377 820.509 86.0922 853.214 77 885.919 67.9078 901.949 85.0028 929.136 77 956.323 68.9972 966.352 77.4615 990.363 77 1027.78 72.0044 1051.2 96.0218 1045 131.64 1048.62 157.193 1041.6 159.347 1045 183.206 1048.4 207.065 1039.48 222.371 1045 243.166 1050.52 263.96 1039.61 275.909 1045 294.731 1050.39 313.554 1042.04 325.186 1045 354.691 1047.96 384.196 1044.86 389.191 1045 410.454 1045.14 431.717 1039.16 452.794 1045 474.611 1050.84 496.428 1037.79 534.551 1045 551.36 1041.48 579.64 1026.29 599.848 990.363 606 967.411 608.644 948.808 598.434 914.441 606 880.075 613.566 889.918 604.619 867.909 606 845.899 607.381 821.342 602.07 806.682 606 792.021 609.93 779.43 604.479 752.802 606 726.174 607.521 713.934 603.337 698.922 606 683.909 608.663 665.278 599.42 637.694 606 610.111 612.58 616.183 605.256 598.509 606 580.835 606.744 557.328 603.093 544.629 606 531.93 608.907 502.981 601.19 490.749 606 478.517 610.81 431.768 606 414.827 606 397.887 606 373.839 603.398 346.253 606 318.667 608.602 297.27 595.881 255.637 606 229.442 599.178 207.814 580.176 201 551.36 198.627 526.335 206.641 509.756 201 495.597 195.359 481.437 204.608 458.397 201 439.834 197.392 421.272 207.796 385.353 201 371.48 194.204 357.607 203.022 331.754 201 311.52 198.978 291.286 201.173 278.153 201 247.363 200.827 216.573 207.055 213.002 201 191.6 194.945 170.199 201.432 151.863 201 131.64Z" stroke="#593EB3" stroke-width="8" stroke-miterlimit="8" fill="none" fill-rule="evenodd"/></g></svg>
