<svg width="1280" height="720" xmlns="http://www.w3.org/2000/svg" xmlns:xlink="http://www.w3.org/1999/xlink" overflow="hidden"><defs><clipPath id="clip0"><rect x="0" y="0" width="1280" height="720"/></clipPath><clipPath id="clip1"><rect x="-49" y="-10" width="739" height="740"/></clipPath><clipPath id="clip2"><rect x="-49" y="-10" width="739" height="740"/></clipPath><clipPath id="clip3"><rect x="-49" y="-10" width="739" height="740"/></clipPath></defs><g clip-path="url(#clip0)"><g clip-path="url(#clip1)"><g clip-path="url(#clip2)"><g clip-path="url(#clip3)"><path d="M585.042 138.562C585.042 172.574 488.54 200.146 369.5 200.146 250.46 200.146 153.958 172.574 153.958 138.562 153.958 104.551 250.46 76.9792 369.5 76.9792 488.54 76.9792 585.042 104.551 585.042 138.562Z" fill="#00B0F0" transform="matrix(1 0 0 1.00135 -49 -10)"/><path d="M523.458 292.521C514.221 292.521 508.062 286.362 508.062 277.125 508.062 267.887 514.221 261.729 523.458 261.729 532.696 261.729 538.854 267.887 538.854 277.125 538.854 286.362 532.696 292.521 523.458 292.521ZM369.5 230.938C250.952 230.938 153.958 203.225 153.958 169.354L153.958 292.521C153.958 326.392 250.952 354.104 369.5 354.104 488.048 354.104 585.042 326.392 585.042 292.521L585.042 169.354C585.042 203.225 488.048 230.938 369.5 230.938Z" fill="#00B0F0" transform="matrix(1 0 0 1.00135 -49 -10)"/><path d="M523.458 446.479C514.221 446.479 508.062 440.321 508.062 431.083 508.062 421.846 514.221 415.688 523.458 415.688 532.696 415.688 538.854 421.846 538.854 431.083 538.854 440.321 532.696 446.479 523.458 446.479ZM369.5 384.896C250.952 384.896 153.958 357.183 153.958 323.312L153.958 446.479C153.958 480.35 250.952 508.062 369.5 508.062 488.048 508.062 585.042 480.35 585.042 446.479L585.042 323.312C585.042 357.183 488.048 384.896 369.5 384.896Z" fill="#00B0F0" transform="matrix(1 0 0 1.00135 -49 -10)"/><path d="M523.458 600.438C514.221 600.438 508.062 594.279 508.062 585.042 508.062 575.804 514.221 569.646 523.458 569.646 532.696 569.646 538.854 575.804 538.854 585.042 538.854 594.279 532.696 600.438 523.458 600.438ZM369.5 538.854C250.952 538.854 153.958 511.142 153.958 477.271L153.958 600.438C153.958 634.308 250.952 662.021 369.5 662.021 488.048 662.021 585.042 634.308 585.042 600.438L585.042 477.271C585.042 511.142 488.048 538.854 369.5 538.854Z" fill="#00B0F0" transform="matrix(1 0 0 1.00135 -49 -10)"/></g></g></g><text fill="#B13BAA" font-family="Algerian,Algerian_MSFontService,sans-serif" font-weight="400" font-stretch="extra-condensed" font-size="800" transform="translate(630.188 607)">Q</text><path d="M20 81.5096C18.6465 42.7502 56.7043 15.2537 92.4911 9 107.345 3.3834 134.595 10.084 153.325 9 172.056 7.91596 184.38 13.486 192.259 9 200.139 4.51405 223.069 12.7442 253.094 9 283.119 5.25585 282.576 12.2399 292.028 9 301.479 5.76007 354.636 9.47336 374.762 9 394.889 8.52664 403.523 13.6256 413.696 9 423.87 4.37442 458.808 9.50076 485.481 9 512.154 8.49924 514.345 13.0289 524.415 9 534.485 4.97114 567.477 17.1866 596.199 9 624.922 0.813355 654.039 11.8213 678.934 9 703.829 6.17873 721.428 15.9165 761.669 9 801.909 2.08352 785.813 9.20387 800.603 9 815.392 8.79613 840.187 16.2526 861.437 9 882.687 1.74737 904.781 15.7597 933.221 9 961.661 2.24026 987.502 15.4369 1015.96 9 1044.41 2.56308 1064.04 13.3456 1076.79 9 1089.54 4.65441 1103.13 10.2877 1115.72 9 1128.32 7.7123 1159.6 9.44019 1187.51 9 1222.04 7.90316 1260.23 48.925 1260 81.5096 1263.58 93.2729 1254.47 112.532 1260 132.257 1265.53 151.982 1254.61 164.059 1260 177.434 1265.39 190.809 1259.62 216.988 1260 228.181 1260.38 239.374 1258.92 268.602 1260 290.068 1261.08 311.534 1258.59 326.111 1260 340.815 1261.4 355.519 1259.81 386.975 1260 402.702 1260.19 418.429 1259.86 444.811 1260 459.019 1260.14 473.227 1259.02 498.941 1260 515.336 1260.98 531.73 1253.05 552.837 1260 577.223 1266.95 601.608 1258.21 613.027 1260 638.49 1261.92 666.764 1231.41 712.863 1187.51 711 1147.91 717.605 1137.46 703.31 1104.77 711 1072.09 718.69 1059.77 703.734 1032.99 711 1006.21 718.266 1010.23 709.12 994.056 711 977.88 712.88 978.248 707.835 966.072 711 953.896 714.165 929.777 705.374 916.188 711 902.598 716.626 887.185 707.867 877.254 711 867.323 714.133 842.184 708.891 827.37 711 812.555 713.109 772.289 703.055 744.635 711 716.981 718.945 707.731 707.607 683.801 711 659.871 714.393 642.978 708.648 612.016 711 581.055 713.352 586.164 708.537 562.132 711 538.1 713.463 542.805 709.239 534.148 711 525.492 712.76 485.757 708.392 451.414 711 417.07 713.608 421.631 706.902 412.48 711 403.328 715.098 374.734 705.96 340.695 711 306.656 716.04 314.737 709.184 301.761 711 288.785 712.816 269.837 707.973 240.927 711 212.017 714.027 209.513 710.666 191.043 711 172.572 711.334 170.318 708.475 163.059 711 155.8 713.525 122.895 705.066 92.4911 711 48.7965 713.262 18.7889 683.031 20 638.49 17.7366 609.971 25.1118 596.167 20 565.464 14.8882 534.761 21.8918 529.562 20 514.717 18.1082 499.872 25.9515 487.501 20 463.97 14.0485 440.438 27.255 413.168 20 390.943 12.745 368.719 22.0655 354.065 20 340.196 17.9345 326.328 26.9471 294.307 20 267.17 13.0529 240.032 25.7556 235.149 20 216.423 14.2444 197.696 22.8265 161.444 20 143.396 17.1735 125.349 27.0013 110.35 20 81.5096Z" stroke="#593EB3" stroke-width="8" stroke-miterlimit="8" fill="none" fill-rule="evenodd"/></g></svg>
